<?xml version="1.0" encoding="utf-8"?>
<!-- Generator: Adobe Illustrator 26.1.0, SVG Export Plug-In . SVG Version: 6.00 Build 0)  -->
<svg version="1.1" xmlns="http://www.w3.org/2000/svg" xmlns:xlink="http://www.w3.org/1999/xlink" x="0px" y="0px"
	 viewBox="0 0 40 40" style="enable-background:new 0 0 40 40;" xml:space="preserve">
<style type="text/css">
	.st0{display:none;}
	.st1{display:inline;fill-rule:evenodd;clip-rule:evenodd;fill:#990000;}
	.st2{display:inline;}
	.st3{fill:#333333;}
	.st4{filter:url(#Adobe_OpacityMaskFilter);}
	.st5{fill:url(#SVGID_00000110443876209210623820000002260780982528200078_);}
	.st6{display:none;mask:url(#SVGID_1_);fill:#333333;}
	.st7{display:none;fill:#333333;}
	.st8{display:none;opacity:0.1;fill:#333333;}
	.st9{filter:url(#Adobe_OpacityMaskFilter_00000090987570905967712280000012777297995327872159_);}
	.st10{fill:url(#SVGID_00000132770394656220053380000011699390246769324701_);}
	.st11{display:none;mask:url(#SVGID_00000088841128842021473880000010537240901002020014_);fill:#FFFFFF;}
	.st12{display:none;fill:#FFFFFF;}
	.st13{display:none;opacity:0.1;fill:#FFFFFF;}
	.st14{display:inline;fill:#333333;}
	.st15{display:inline;fill-rule:evenodd;clip-rule:evenodd;fill:#333333;}
</style>
<g id="Calque_7" class="st0">
	<rect x="-0.3" y="0" class="st1" width="40.1" height="40.1"/>
</g>
<g id="facebook" class="st0">
	<g id="Calque_8" class="st2">
		<rect x="1.2" y="1.9" class="st3" width="37.4" height="37.4"/>
	</g>
	<g class="st2">
		<defs>
			<filter id="Adobe_OpacityMaskFilter" filterUnits="userSpaceOnUse" x="-2" y="34.7" width="46.1" height="6.7">
				<feColorMatrix  type="matrix" values="1 0 0 0 0  0 1 0 0 0  0 0 1 0 0  0 0 0 1 0"/>
			</filter>
		</defs>
		<mask maskUnits="userSpaceOnUse" x="-2" y="34.7" width="46.1" height="6.7" id="SVGID_1_">
			<g class="st4">
				
					<radialGradient id="SVGID_00000076585313951396115920000015974841228671624864_" cx="639.4357" cy="1079.1681" r="94.0208" gradientTransform="matrix(-0.2451 -3.000000e-04 2.000000e-03 -3.550000e-02 175.6551 76.5253)" gradientUnits="userSpaceOnUse">
					<stop  offset="0" style="stop-color:#FFFFFF"/>
					<stop  offset="0.1213" style="stop-color:#D1D1D1"/>
					<stop  offset="0.3023" style="stop-color:#939392"/>
					<stop  offset="0.4757" style="stop-color:#5F5F5E"/>
					<stop  offset="0.6368" style="stop-color:#363635"/>
					<stop  offset="0.7828" style="stop-color:#191918"/>
					<stop  offset="0.9086" style="stop-color:#070706"/>
					<stop  offset="1" style="stop-color:#010100"/>
				</radialGradient>
				<path style="fill:url(#SVGID_00000076585313951396115920000015974841228671624864_);" d="M-2,38c0.1-1.8,10.5-3.3,23.3-3.3
					c12.7,0,23,1.5,22.9,3.4c-0.1,1.8-10.5,3.3-23.2,3.3C8.2,41.3-2.1,39.8-2,38z"/>
			</g>
		</mask>
		<path class="st6" d="M-2,38c0.1-1.8,10.5-3.3,23.3-3.3c12.7,0,23,1.5,22.9,3.4c-0.1,1.8-10.5,3.3-23.2,3.3C8.2,41.3-2.1,39.8-2,38
			z"/>
		<path class="st7" d="M41.9,18.9c0,11.5-9.4,20.7-20.8,20.7c-11.5,0-20.7-9.4-20.7-20.8C0.4,7.3,9.7-2,21.2-1.9
			C32.7-1.9,41.9,7.4,41.9,18.9z"/>
		<path class="st8" d="M38.4,11c-3,6.7-9.7,11.3-17.5,11.2c-7.8,0-14.5-4.7-17.5-11.3C6.5,4.3,13.2-0.3,21-0.3
			C28.8-0.3,35.4,4.4,38.4,11z"/>
		<path class="st3" d="M25.9,12.4c0-2.2,1.9-1.8,1.9-1.8l5.8,0l0-6.5l-8.8,0c-6.6,0-6.8,7.3-6.8,7.3l0,5v0l-3.8,0l0,5.9l3.8,0
			l-0.1,18.2l7.9,0l0-18.2l6.7,0l1-6.1l-7.7,0v-0.1C25.9,16.2,25.9,14.5,25.9,12.4z"/>
	</g>
</g>
<g id="facebook_-_copie">
	<g id="Calque_8_-_copie">
		<g>
			<path class="st3" d="M38.6,1.9H1.2v37.4h16.9l0-16.8l-3.4,0l0-5.4l3.4,0v0l0-4.5c0,0,0.2-6.6,6.2-6.6l8,0l0,5.9l-5.3,0
				c0,0-1.7-0.3-1.7,1.7c0,2,0,3.5,0,3.5v0.1l7,0l-0.9,5.5l-6.1,0l0,16.8h13.3V1.9z"/>
		</g>
	</g>
	<g>
		<defs>
			
				<filter id="Adobe_OpacityMaskFilter_00000156559638194592532990000012847400449197566354_" filterUnits="userSpaceOnUse" x="-2.3" y="35" width="46.1" height="6.7">
				<feColorMatrix  type="matrix" values="1 0 0 0 0  0 1 0 0 0  0 0 1 0 0  0 0 0 1 0"/>
			</filter>
		</defs>
		
			<mask maskUnits="userSpaceOnUse" x="-2.3" y="35" width="46.1" height="6.7" id="SVGID_00000113312748802758887080000004042888480587577257_">
			<g style="filter:url(#Adobe_OpacityMaskFilter_00000156559638194592532990000012847400449197566354_);">
				
					<radialGradient id="SVGID_00000149343810043994781040000005266643494602482324_" cx="640.8238" cy="1071.0682" r="94.0208" gradientTransform="matrix(-0.2451 -3.000000e-04 2.000000e-03 -3.550000e-02 175.6551 76.5253)" gradientUnits="userSpaceOnUse">
					<stop  offset="0" style="stop-color:#FFFFFF"/>
					<stop  offset="0.1213" style="stop-color:#D1D1D1"/>
					<stop  offset="0.3023" style="stop-color:#939392"/>
					<stop  offset="0.4757" style="stop-color:#5F5F5E"/>
					<stop  offset="0.6368" style="stop-color:#363635"/>
					<stop  offset="0.7828" style="stop-color:#191918"/>
					<stop  offset="0.9086" style="stop-color:#070706"/>
					<stop  offset="1" style="stop-color:#010100"/>
				</radialGradient>
				<path style="fill:url(#SVGID_00000149343810043994781040000005266643494602482324_);" d="M-2.3,38.3C-2.2,36.5,8.2,35,20.9,35
					c12.7,0,23,1.5,22.9,3.4c-0.1,1.8-10.5,3.3-23.2,3.3C7.8,41.6-2.5,40.1-2.3,38.3z"/>
			</g>
		</mask>
		<path style="display:none;mask:url(#SVGID_00000113312748802758887080000004042888480587577257_);fill:#FFFFFF;" d="M-2.3,38.3
			C-2.2,36.5,8.2,35,20.9,35c12.7,0,23,1.5,22.9,3.4c-0.1,1.8-10.5,3.3-23.2,3.3C7.8,41.6-2.5,40.1-2.3,38.3z"/>
		<path class="st12" d="M41.6,19.2c0,11.5-9.4,20.7-20.8,20.7C9.3,39.9,0,30.6,0,19.1C0,7.6,9.4-1.7,20.8-1.6
			C32.3-1.6,41.6,7.7,41.6,19.2z"/>
		<path class="st13" d="M38.1,11.3c-3,6.7-9.7,11.3-17.5,11.2c-7.8,0-14.5-4.7-17.5-11.3C6.1,4.6,12.8-0.1,20.6,0
			C28.4,0,35.1,4.6,38.1,11.3z"/>
	</g>
</g>
<g id="twitter" class="st0">
	<path class="st14" d="M39.1,13.5c-0.4,0.6-0.9,1.2-1.6,2c-0.9,0.9-1.6,1.5-2,1.7v1.3c0,2.1-0.4,4.3-1.2,6.7c-1.2,3.5-3.3,6.4-6.1,9
		c-3.9,3.3-8.4,4.9-13.5,4.9c-4.1,0-7.8-1.1-11.3-3.3C3.8,36,4.5,36,5.3,36c2.3,0,4.5-0.6,6.8-1.8c0.6-0.3,1.3-0.8,2.1-1.4
		c-1.3,0-2.6-0.4-3.8-1.2c-1.4-0.9-2.5-2.2-3.1-3.9c0.5,0.1,1,0.1,1.3,0.1h1.1c0.5-0.1,0.8-0.2,0.8-0.2c-0.1,0-0.5-0.1-1-0.3
		c-0.8-0.3-1.6-0.8-2.5-1.6c-1.5-1.5-2.2-3.3-2.2-5.3C5.9,21,7,21.3,8,21.3v-0.1c-0.4-0.2-0.9-0.6-1.4-1.3c-1.1-1.4-1.7-3.1-1.7-4.9
		c0-1.1,0.3-2.3,1-3.5c1.7,1.9,3.3,3.4,4.9,4.4c2,1.3,4.4,2.2,7,2.9c1.6,0.3,2.7,0.4,3.2,0.4c-0.1-0.6-0.2-1.2-0.2-1.7
		c0-2,0.7-3.8,2.2-5.2c1.5-1.4,3.2-2.1,5.1-2.1s3.7,0.8,5.3,2.3c0.2,0,0.7-0.1,1.7-0.4c1-0.3,2-0.8,2.9-1.4
		c-0.3,0.9-0.8,1.9-1.6,2.8c-0.7,0.6-1.2,1-1.5,1.2v0.1C35.8,14.7,37.2,14.3,39.1,13.5L39.1,13.5z"/>
</g>
<g id="linkdin" class="st0">
	<g class="st2">
		<path class="st3" d="M34.1,25v9.8h-5.7v-9.1c0-1.1-0.2-2.1-0.6-2.8c-0.4-0.7-1.2-1.1-2.2-1.1c-0.8,0-1.5,0.2-1.9,0.7
			c-0.5,0.4-0.8,0.9-1,1.4c-0.1,0.2-0.1,0.4-0.1,0.7v10.3h-5.7V17.6h5.7v2.5c-0.1,0-0.1,0-0.1,0.1h0.1v-0.1c0.4-0.6,1-1.2,1.7-1.9
			c0.7-0.6,1.9-1,3.5-1c1.9,0,3.5,0.6,4.7,1.9C33.5,20.4,34.1,22.3,34.1,25z"/>
		<path class="st3" d="M14,12.3c0,0.8-0.3,1.5-0.9,2.1c-0.6,0.6-1.4,0.8-2.3,0.8c-1,0-1.8-0.3-2.4-0.8c-0.6-0.6-0.8-1.2-0.8-2.1
			c0-0.9,0.3-1.6,0.9-2.1C9,9.7,9.8,9.4,10.8,9.4c0.9,0,1.6,0.3,2.2,0.8C13.6,10.8,13.9,11.5,14,12.3z"/>
		<rect x="7.8" y="17.6" class="st3" width="5.7" height="17.1"/>
	</g>
</g>
<g id="insta" class="st0">
	<g class="st2">
		<g>
			<path class="st3" d="M38.7,16.4c0-0.9,0-1.6,0-2.1c0-0.5,0-1.1-0.1-1.7c-0.1-1.9-0.4-3.4-0.8-4.5c-0.4-1.2-1.2-2.3-2.1-3.2
				c-1-1-2.1-1.7-3.2-2.1c-1.1-0.5-2.6-0.8-4.5-0.8c-0.6,0-1.2-0.1-1.7-0.1c-0.5,0-1.2,0-2.1,0h-7.5c-0.8,0-1.5,0-2.1,0
				c-0.5,0-1.1,0.1-1.7,0.1C10.9,2,9.4,2.3,8.3,2.8C7.1,3.2,6.1,3.9,5.1,4.9c-1,1-1.7,2.1-2.1,3.2c-0.5,1.1-0.8,2.6-0.8,4.5
				c0,0.6,0,1.2-0.1,1.7c0,0.5,0,1.2,0,2.1c0,0.9,0,2.1,0,3.8c0,1.7,0,2.9,0,3.8c0,0.9,0,1.6,0,2.1c0,0.5,0,1.1,0.1,1.7
				c0.1,1.9,0.4,3.4,0.8,4.5c0.4,1.2,1.2,2.3,2.1,3.2c1,1,2.1,1.7,3.2,2.1c1.1,0.5,2.6,0.7,4.5,0.8c0.6,0,1.2,0.1,1.7,0.1
				c0.5,0,1.2,0,2.1,0h7.5c0.9,0,1.5,0,2.1,0c0.5,0,1.1-0.1,1.7-0.1c1.9-0.1,3.4-0.4,4.5-0.8c1.2-0.4,2.3-1.2,3.2-2.1
				c1-1,1.7-2.1,2.1-3.2c0.5-1.1,0.7-2.6,0.8-4.5c0-0.6,0-1.2,0.1-1.7c0-0.5,0-1.2,0-2.1c0-0.9,0-2.1,0-3.8
				C38.7,18.5,38.7,17.3,38.7,16.4z M35.4,23.9c0,0.8,0,1.5,0,2c0,0.5-0.1,1.1-0.1,1.7c-0.1,1.7-0.3,2.8-0.6,3.4
				c-0.3,0.8-0.7,1.5-1.4,2.1c-0.6,0.6-1.3,1.1-2.1,1.4c-0.6,0.3-1.7,0.5-3.4,0.6c-0.6,0-1.2,0-1.7,0.1c-0.5,0-1.2,0-2,0
				c-0.8,0-2.1,0-3.7,0c-1.6,0-2.9,0-3.7,0c-0.8,0-1.5,0-2,0c-0.5,0-1.1,0-1.7-0.1c-1.7-0.1-2.8-0.3-3.4-0.6
				c-0.8-0.3-1.5-0.8-2.1-1.4C6.8,32.6,6.3,31.8,6,31c-0.3-0.6-0.5-1.7-0.6-3.4c0-0.6-0.1-1.2-0.1-1.7s0-1.2,0-2v-7.4
				c0-0.8,0-1.5,0-2c0-0.5,0.1-1.1,0.1-1.7C5.5,11.1,5.7,9.9,6,9.4c0.3-0.8,0.8-1.5,1.4-2.1C8,6.6,8.7,6.2,9.5,5.9
				c0.6-0.3,1.7-0.5,3.4-0.6c0.5-0.1,1-0.1,1.5-0.1c0.5,0,1,0,1.6,0h8c0.8,0,1.5,0,2,0c0.5,0,1.1,0.1,1.7,0.1
				c1.7,0.1,2.9,0.3,3.4,0.6c0.8,0.3,1.5,0.8,2.1,1.4c0.6,0.6,1.1,1.3,1.4,2.1c0.3,0.6,0.5,1.7,0.6,3.4c0,0.6,0,1.2,0.1,1.7
				c0,0.5,0,1.2,0,2V23.9z"/>
		</g>
		<g>
			<path class="st3" d="M27.1,13.5c-1.8-1.8-4.1-2.8-6.7-2.8c-2.6,0-4.8,0.9-6.7,2.8c-1.8,1.8-2.8,4.1-2.8,6.7
				c0,2.6,0.9,4.9,2.8,6.7c1.8,1.8,4.1,2.7,6.7,2.7c2.6,0,4.8-0.9,6.7-2.7c1.8-1.8,2.8-4.1,2.8-6.7C29.8,17.6,28.9,15.4,27.1,13.5z
				 M24.7,24.5c-1.2,1.2-2.6,1.8-4.3,1.8c-1.7,0-3.1-0.6-4.4-1.8c-1.2-1.2-1.8-2.7-1.8-4.4c0-1.7,0.6-3.1,1.8-4.3
				c1.2-1.2,2.7-1.8,4.4-1.8c1.7,0,3.1,0.6,4.3,1.8c1.2,1.2,1.8,2.6,1.8,4.3C26.5,21.9,25.9,23.3,24.7,24.5z"/>
		</g>
		<g>
			<path class="st3" d="M32.4,10.4c0,0.6-0.2,1.1-0.6,1.6c-0.4,0.4-0.9,0.6-1.5,0.6c-0.6,0-1.1-0.2-1.6-0.6c-0.4-0.4-0.6-1-0.6-1.6
				c0-0.6,0.2-1.1,0.6-1.5c0.4-0.4,1-0.6,1.6-0.6c0.6,0,1.1,0.2,1.5,0.6C32.2,9.3,32.4,9.8,32.4,10.4z"/>
		</g>
	</g>
</g>
<g id="insta_moin_sarrondi" class="st0">
	<g class="st2">
		<g>
			<path class="st3" d="M30.3,39.7H8.9c-4.4,0-8-3.5-8-7.8v-22c0-4.3,3.6-7.8,8-7.8h21.4c4.4,0,8,3.5,8,7.8v22
				C38.3,36.2,34.7,39.7,30.3,39.7z M8.9,5.3c-2.6,0-4.8,2.1-4.8,4.6v22c0,2.5,2.2,4.6,4.8,4.6h21.4c2.6,0,4.8-2.1,4.8-4.6v-22
				c0-2.5-2.2-4.6-4.8-4.6H8.9z"/>
		</g>
		<g>
			<path class="st3" d="M19.6,30.7c-5.4,0-9.8-4.4-9.8-9.8c0-5.4,4.4-9.8,9.8-9.8c5.4,0,9.8,4.4,9.8,9.8
				C29.4,26.3,25,30.7,19.6,30.7z M19.6,14.4c-3.6,0-6.6,2.9-6.6,6.5c0,3.6,2.9,6.6,6.6,6.6c3.6,0,6.6-2.9,6.6-6.6
				C26.2,17.3,23.2,14.4,19.6,14.4z"/>
		</g>
		<path class="st3" d="M32.4,10.6c0,1.3-1,2.3-2.3,2.3c-1.3,0-2.3-1-2.3-2.3c0-1.3,1-2.3,2.3-2.3C31.4,8.3,32.4,9.4,32.4,10.6z"/>
	</g>
</g>
<g id="_x2E_TV" class="st0">
	<path class="st15" d="M1.6,32c0.4,0.5,0.9,0.7,2.1,0.7c0.3,0,0.9-0.2,1.5-0.7c0.6-0.5,0.9-1.1,1-1.8c0.1-0.7,0-1.3-0.4-1.8
		c-0.4-0.5-0.9-0.3-1.7-0.3c-0.7,0-1.4-0.2-1.9,0.3c-0.6,0.5-0.9,1.1-1,1.8C1.1,31,1.2,31.6,1.6,32z"/>
	<path class="st15" d="M30.5,33.1h-4.9l-2.2-17.9h4.3l0.7,8.3c0.1,1,0.2,1.9,0.2,2.9c0,1.9,0.1,1.9,0.2,2.9h0.1c0.4-1,6-14.1,6-14.1
		h4.1L30.5,33.1z M16.2,18.6l-2.6,14.5H9.6l2.6-14.5H6.8l0.6-3.4h14.7l-0.6,3.4H16.2z"/>
</g>
</svg>
