<?xml version="1.0" encoding="UTF-8"?>
<svg width="96.486mm" height="122.35mm" version="1.1" viewBox="0 0 96.486 122.35" xmlns="http://www.w3.org/2000/svg" xmlns:cc="http://creativecommons.org/ns#" xmlns:dc="http://purl.org/dc/elements/1.1/" xmlns:rdf="http://www.w3.org/1999/02/22-rdf-syntax-ns#">
 <metadata>
  <rdf:RDF>
   <cc:Work rdf:about="">
    <dc:format>image/svg+xml</dc:format>
    <dc:type rdf:resource="http://purl.org/dc/dcmitype/StillImage"/>
    <dc:title/>
   </cc:Work>
  </rdf:RDF>
 </metadata>
 <g transform="translate(-1.3245 87.133)">
  <path d="m74.208-86.411c-0.07555-7.47e-4 -0.1517-1.27e-4 -0.2281 0.0014-0.61112 0.01227-1.2371 0.08885-1.683 0.08885h-44.613c-0.86511 0-2.3483-0.27992-3.1045 0.2079-1.231 0.79403-1.6186 4.2622-2.0678 5.6112-1.7211 5.1681-3.1304 10.339-5.3064 15.341-0.57538 1.3225-3.0281 4.9943-1.865 6.1717v0.17631c-3.5232 2.6944-6.2012 7.5545-8.155 11.462-6.48 12.96-6.8077 28.139-1.1155 41.439 1.5271 3.568 3.6042 6.9754 5.9619 10.051 1.2612 1.6452 3.2186 3.179 4.0023 5.1138 2.4319 6.0041 4.5503 11.936 6.3352 18.163l1.3334 4.761c0.17352 0.60872 0.27409 1.5417 0.85654 1.9082 0.63252 0.39799 1.7057 0.2079 2.4195 0.2079h43.026c1.3234 0 4.6785 0.60103 5.7048-0.30712 1.2444-1.101 1.5735-4.4792 2.0588-6.0411 1.5735-5.0648 3.3564-9.9016 5.3555-14.812 0.5761-1.4153 1.1935-2.8145 1.7631-4.2321 0.28637-0.71293 0.65296-1.4621-0.24636-1.7635 3.5135-5.0473 7.1158-9.4906 9.335-15.341 6.1683-16.262 3.195-37.093-9.335-49.727 0.90161-0.3003 0.5818-1.0424 0.27726-1.7635-0.62829-1.4876-1.3628-2.9314-2.0158-4.4084-2.3442-5.3019-3.8663-10.47-5.4165-16.047-0.39094-1.4068-0.72999-2.8287-1.1327-4.2319-0.16029-0.55821-0.25521-1.3833-0.7791-1.7319-0.33783-0.22481-0.83674-0.29286-1.3656-0.29816zm-47.013 0.94451c1.2075 0.01036 2.5647 0.20369 3.3096 0.20369h41.792c0.72475 0 1.9071-0.22406 2.5693 0.10641 0.48317 0.24116 0.57645 1.014 0.70641 1.4806 0.35885 1.2884 0.6943 2.583 1.0226 3.8795 0.5828 2.3011 1.2729 4.5751 1.8511 6.8772 0.23383 0.93071 0.71815 2.034 0.67884 2.9977-0.07213 1.7681-1.1684 3.7883-1.7145 5.4665-3.4805-1.9827-6.6503-4.1969-10.404-5.7129-10.124-4.0889-21.343-4.3913-31.741-1.16-3.052 0.94834-6.0275 2.2942-8.8168 3.8505-1.4684 0.81926-2.9612 2.2484-4.5849 2.6695-0.52266-1.2553-1.7074-2.6955-1.8381-4.0558-0.10722-1.1155 0.62601-2.4784 0.95188-3.5268 0.78506-2.5266 1.5225-5.071 2.3557-7.5824 0.39658-1.1951 0.75768-4.3729 1.7951-5.109 0.39352-0.2792 1.0694-0.37433 1.8272-0.38437 0.07894-0.0011 0.15866-0.0012 0.23916-5.09e-4zm22.67 12.75c4.3545-0.0073 8.8524 0.82883 12.909 2.0153 5.2901 1.547 10.257 4.08 14.636 7.4217 3.7135 2.8343 7.0745 6.1208 9.7998 9.9341 12.123 16.964 11.688 40.147-0.78788 56.781-3.27 4.3596-7.4409 8.0446-12.01 10.987-5.8809 3.7879-12.635 6.1187-19.574 6.9489-5.5515 0.66444-11.147 0.11404-16.576-1.1094-4.994-1.1256-9.8517-3.3647-14.107-6.1877-4.7295-3.1376-8.9596-7.0676-12.268-11.697-14.824-20.743-10.546-50.733 10.152-65.97 7.3004-5.3742 15.45-7.8743 24.335-8.9225 1.0086-0.11901 2.0344-0.18255 3.0693-0.19736 0.14015-2e-3 0.28043-0.0031 0.4209-0.0033zm30.014 4.2061 4.5847 10.228c-1.5987-1.1261-2.9242-2.7205-4.4084-4.0047-0.53166-0.46006-1.4254-0.93148-1.6404-1.6449-0.31529-1.0464 0.83579-3.738 1.4641-4.5778zm-60.307 0.88164 1.7633 3.5268-5.6428 4.7612 2.2177-5.1138zm31.353 3.4665c-0.70919 0.0041-1.406 0.04639-2.0813 0.13503-3.4765 0.45653-6.8341 0.64261-10.228 1.6931-10.309 3.191-19.065 10.805-23.575 20.627-8.4004 18.297-1.0298 40.066 16.345 50.004 3.4167 1.9543 7.262 3.2561 11.109 4.0254 3.7389 0.74766 7.6714 1.0379 11.462 0.58454 19.491-2.331 34.262-18.361 34.736-38.039 0.41792-17.328-12.01-33.123-28.564-37.586-2.8232-0.76122-6.1312-1.462-9.2043-1.4444zm-0.62757 0.9956c3.2583 0.01675 6.5994 0.571 9.6556 1.3773 4.4296 1.1686 8.6632 3.1772 12.344 5.9101 17.081 12.683 20.43 37.615 6.9726 54.201-2.7341 3.3696-6.0777 6.23-9.794 8.4642-4.5439 2.7318-9.7091 4.5172-14.989 5.0844-5.996 0.64433-12.152-0.026299-17.81-2.1619-22.453-8.4748-31.214-36.845-17.629-56.529 2.778-4.0251 6.3047-7.4889 10.399-10.167 5.3804-3.5188 11.304-5.2586 17.634-6.0058 1.0541-0.12445 2.1309-0.17854 3.217-0.17296zm-0.17822 3.5561c-0.01386-1.84e-4 -0.02817 7.61e-4 -0.04284 0.0028-0.06707 0.0094-0.14277 0.04255-0.22774 0.10571-0.41687 0.31-0.29885 1.1256-0.29956 1.5719v4.5847c6.8e-4 0.35708-0.07951 1.8045 0.65987 1.5261 0.51632-0.19432 0.39736-1.1044 0.39824-1.5261 0.0034-1.6452 0.02236-3.2924-6.79e-4 -4.9375-0.0039-0.27263-0.05708-1.3219-0.48727-1.3276zm-17.322 4.1491c0.10527 1.5835 1.3877 3.0801 2.1868 4.4084 0.44719 0.74344 0.74119 1.454 1.6927 1.2344-0.43626-1.5116-2.2279-5.3757-3.8795-5.6428zm34.006 1.279c-0.4983-0.0036-1.1031 0.92978-1.3125 1.1902-1.0425 1.2954-2.8784 2.8772-3.0683 4.5843 1.6272-0.25322 2.8742-2.6637 3.8442-3.8793 0.25851-0.32393 1.3026-1.3421 0.79227-1.7931-0.06545-0.05784-0.13533-0.089-0.20772-0.09868-0.01583-0.0021-0.03187-0.0032-0.04794-0.0033zm-46.702 11.417c0.27949 1.7731 3.6923 3.2509 5.1138 4.1712 0.65068 0.42127 1.1639 0.73952 1.9398 0.58999-0.31264-0.87763-1.0123-1.2625-1.7635-1.7635-1.517-1.0118-3.4244-2.8727-5.29-2.9977zm58.544 0c-1.5116 0.43626-5.3757 2.2278-5.6428 3.8793 1.5835-0.10527 3.0801-1.3875 4.4084-2.1866 0.74344-0.4472 1.454-0.74119 1.2344-1.6927zm-59.828 16.501c-0.09454-8.16e-4 -0.18838-8.16e-4 -0.28147 1.75e-4 -0.89371 0.0095-1.7105 0.10628-2.2569 0.38156-0.59884 0.30171-0.15612 0.79592 0.30606 0.88762 1.5877 0.31459 3.485 0.04021 5.1032 0.04021 0.53589 0 1.4121 0.15471 1.8732-0.18051 0.73074-0.53095-0.42944-0.85717-0.81527-0.8741-0.9545-0.04155-2.5107-0.24297-3.9289-0.25496zm60.307 0c-0.09454-8.16e-4 -0.18838-8.16e-4 -0.28147 1.75e-4 -0.89372 0.0095-1.7105 0.10628-2.2569 0.38156-0.59884 0.30171-0.15612 0.79592 0.30606 0.88762 1.5878 0.31459 3.485 0.04021 5.1032 0.04021 0.53589 0 1.4121 0.15471 1.8732-0.18051 0.73074-0.53095-0.42944-0.85717-0.81527-0.8741-0.9545-0.04155-2.5107-0.24297-3.9289-0.25496zm-52.381 13.263c-0.56178 0.0106-0.99984 0.28493-1.5285 0.62721-1.4215 0.9203-4.8343 2.3981-5.1138 4.1712 1.8656-0.12502 3.773-1.9861 5.29-2.9979 0.7512-0.50098 1.4508-0.88566 1.7635-1.7633-0.14548-0.02807-0.28159-0.03969-0.41124-0.03722zm46.259 0.91887c0.2615 1.6068 3.5982 2.5501 4.9375 3.2175 0.43115 0.21478 1.3382 0.84352 1.823 0.4755 0.67784-0.5142-1.01-1.215-1.2939-1.3572-1.6553-0.82861-3.5896-2.2386-5.4665-2.3359zm-9.5222 9.5223c0.10527 1.5835 1.3875 3.0801 2.1866 4.4084 0.44719 0.74344 0.74119 1.4538 1.6927 1.2342-0.43626-1.5116-2.2278-5.3755-3.8793-5.6426zm-26.302 0.22072c-0.4983-0.00357-1.1031 0.9296-1.3125 1.19-1.0425 1.2954-2.8786 2.8776-3.0685 4.5847 1.6272-0.25322 2.8744-2.6637 3.8444-3.8793 0.25851-0.32393 1.3024-1.3421 0.79209-1.7931-0.06544-0.057849-0.13534-0.089171-0.20772-0.098859-0.01583-0.00204-0.0317-0.00306-0.04776-0.0034zm12.941 3.0363c-0.01386-1.8349e-4 -0.02817 6.7958e-4 -0.04284 0.002718-0.06707 0.009412-0.14277 0.042736-0.22774 0.10588-0.41687 0.31-0.29885 1.1254-0.29956 1.5717v4.5849c6.8e-4 0.35708-0.07951 1.8045 0.65987 1.5261 0.51632-0.19432 0.39736-1.1044 0.39824-1.5261 0.0034-1.6452 0.02236-3.2924-6.79e-4 -4.9375-0.0039-0.27264-0.05708-1.3219-0.48727-1.3276zm34.345 6.6177-4.5847 11.286h-0.17647l-1.9396-5.4663zm-66.832 2.8214 3.7031 2.9979-0.88165 3.8793c-1.2508-0.91714-1.7939-3.6919-2.3626-5.1138-0.22783-0.56992-0.56586-1.1528-0.45882-1.7635zm4.2321 3.7032c1.7648 0.41844 3.4994 2.0702 5.1138 2.9433 3.388 1.8325 7.0138 3.3649 10.757 4.3052 9.1778 2.3056 19.151 2.0354 28.038-1.396 2.4096-0.93036 4.826-1.97 7.0535-3.2871 1.4123-0.83514 2.846-2.0676 4.4084-2.5654 0.45372 1.9614 1.8725 4.1585 1.875 6.1717 0.0034 2.607-1.6716 5.9798-2.4646 8.4642-0.34615 1.0845-0.67415 3.9113-1.6167 4.58-0.53184 0.37736-1.5844 0.18121-2.2021 0.18121h-42.321c-1.23 0-4.3468 0.56558-5.3424-0.18121-1.0185-0.7639-1.279-3.7437-1.6095-4.9325-0.80762-2.9043-2.3419-6.1542-2.5327-9.1696-0.10651-1.6845 0.71023-3.4324 0.84407-5.1138z" fill="#181718" stroke="#0c6588" stroke-width="1.4429"/>
 </g>
</svg>
