<?xml version="1.0" encoding="UTF-8"?>
<svg width="109.15mm" height="91.34mm" version="1.1" viewBox="0 0 109.15 91.34" xmlns="http://www.w3.org/2000/svg" xmlns:cc="http://creativecommons.org/ns#" xmlns:dc="http://purl.org/dc/elements/1.1/" xmlns:rdf="http://www.w3.org/1999/02/22-rdf-syntax-ns#">
 <metadata>
  <rdf:RDF>
   <cc:Work rdf:about="">
    <dc:format>image/svg+xml</dc:format>
    <dc:type rdf:resource="http://purl.org/dc/dcmitype/StillImage"/>
    <dc:title/>
   </cc:Work>
  </rdf:RDF>
 </metadata>
 <g transform="translate(-286.72 -18.637)">
  <path d="m333.53 86.976c-1.6005 2.7421-3.0123 5.6261-4.4326 8.4667-0.55668 1.1131-1.0692 2.7858-2.2098 3.4332-1.0964 0.6223-2.7226 0.48392-3.941 0.6477-2.7567 0.37095-5.5324 0.70961-8.2021 1.5296-1.1999 0.36856-3.56 1.0337-3.6044 2.6011-0.0429 1.5031 1.9307 2.1569 3.0752 2.5421 3.416 1.1502 7.2599 1.6947 10.848 1.9397 13.359 0.91229 26.607 1.5499 39.952-0.18335 3.1967-0.4154 6.4855-0.78899 9.525-1.9145 0.98848-0.36592 2.6136-0.87736 2.7353-2.1392 0.17224-1.7849-2.5154-2.4879-3.7936-2.8924-2.8572-0.90487-6.019-1.2986-8.9958-1.5753-1.369-0.12726-3.5512 0.0349-4.7062-0.77602-1.0647-0.74771-1.5296-2.3675-2.1151-3.4772-1.4343-2.7183-2.7429-5.5491-4.2913-8.2021h29.898c2.6535 0 8.6582 1.1105 10.757-0.70194 1.0996-0.94959 0.88476-2.4913 0.88476-3.796v-57.944c0-1.5886 0.19685-3.2586-1.3346-4.231-1.9545-1.2409-5.6883-0.53155-7.9258-0.53155h-69.585c-8.3439 0-16.803-0.40852-25.135 0.01058-1.165 0.05874-2.4352 0.44371-2.948 1.6018-0.49847 1.1261-0.22701 2.7392-0.22701 3.9439v56.356c0 1.275-0.3212 3.098 0.46091 4.1981 0.81412 1.1446 2.2548 1.0914 3.5078 1.0935h41.804m-43.391-66.296c2.2709-0.62997 5.3197-0.11483 7.6719-0.11483h88.371c1.877 0 5.5279-0.69294 7.1046 0.4609 1.0866 0.79534 0.83291 2.3291 0.83291 3.5078v57.944c0 1.211 0.30083 2.9326-1.0739 3.5078-1.9024 0.79613-5.0826 0.19632-7.1281 0.19632h-90.488c-1.7042 0-5.1946 0.66119-6.4998-0.644-0.93794-0.93768-0.64399-2.6503-0.64399-3.8539v-57.415c3e-3 -1.51 0.12594-3.1102 1.8531-3.5893m4.7728 5.3732c-1.3343 0.54107-1.5806 1.9688-1.5978 3.2433-0.0394 2.9094-1e-3 5.8216-1e-3 8.7312v31.75c0 2.7038-1.1745 9.1014 1.0935 10.998 1.4298 1.1954 4.3048 0.644 6.0502 0.644h80.433c1.7944 0 4.445 0.48339 6.0738-0.3855 1.416-0.75512 1.334-2.1849 1.3346-3.5833v-40.481c0-2.4448 1.162-9.1382-1.0739-10.652-1.5306-1.0361-4.5596-0.4609-6.3344-0.4609h-79.64c-1.8539 0-4.6032-0.50721-6.3386 0.19632m0.78634 0.44768c2.0354-0.57494 4.7662-0.11483 6.8752-0.11483h77.788c1.7531 0 4.8202-0.58341 6.3212 0.4609 2.2484 1.5645 1.0872 8.1833 1.0872 10.652v39.687c-2e-3 1.2523 0.036 2.6847-1.3346 3.2433-1.7317 0.70564-4.4871 0.19632-6.3384 0.19632h-79.11c-1.5888 0-4.7085 0.59187-6.0251-0.42413-0.93478-0.72178-0.85223-1.9592-0.85408-3.0155v-38.894c0-2.9102-0.0151-5.8211 2.7e-4 -8.7312 7e-3 -1.2978 0.12673-2.6466 1.5912-3.0602m65.877 78.466h-36.248c0.79534-4.4619 4.4574-9.5361 6.6514-13.494 0.66516-1.1999 1.3306-3.7576 2.6654-4.3384 2.5646-1.1155 7.4639-0.15954 10.262-0.15954 1.9029 0 5.9423-0.76597 7.5697 0.27199 1.2298 0.78449 1.9164 3.2237 2.5498 4.4905 2.0249 4.0497 5.693 8.7887 6.5492 13.229m-34.925-5.0271-2.3812 5.5562h38.365l-2.6458-5.8208c4.2783 0.0884 8.8466 0.79825 12.965 1.9653 0.87868 0.24897 4.3569 1.1872 3.2644 2.6509-1.7285 2.3154-8.0364 2.5442-10.673 2.9043-10.637 1.452-21.575 1.4044-32.279 0.93583-5.3266-0.23336-10.641-0.85249-15.875-1.8947-1.4724-0.29316-4.5148-0.65617-5.3361-2.1098-0.77364-1.369 2.1087-2.1392 2.9549-2.3656 3.7653-1.0083 7.7309-1.819 11.642-1.8216z" fill="#141414" stroke="#0c6588" stroke-width="1.865"/>
 </g>
</svg>
