<?xml version="1.0" encoding="UTF-8"?>
<svg width="43.622mm" height="38.309mm" version="1.1" viewBox="0 0 43.622 38.309" xmlns="http://www.w3.org/2000/svg" xmlns:cc="http://creativecommons.org/ns#" xmlns:dc="http://purl.org/dc/elements/1.1/" xmlns:rdf="http://www.w3.org/1999/02/22-rdf-syntax-ns#">
 <metadata>
  <rdf:RDF>
   <cc:Work rdf:about="">
    <dc:format>image/svg+xml</dc:format>
    <dc:type rdf:resource="http://purl.org/dc/dcmitype/StillImage"/>
    <dc:title/>
   </cc:Work>
  </rdf:RDF>
 </metadata>
 <g transform="translate(-93.193 -96.863)">
  <path d="m99.751 100.15c0.25782 1.9147 0.80048 3.8213 1.2023 5.7112 0.95355 4.4842 1.9305 8.9683 2.8363 13.462 0.31575 1.5662 0.66066 3.1254 0.97896 4.6913 0.17469 0.85923 0.2984 1.8087 1.0039 2.413 1.2797 1.0958 4.1238 0.5446 5.7068 0.5446h14.89c1.4903 0 3.2283 0.24803 4.6913-0.0347 0.60252-0.11648 1.0751-0.58448 1.189-1.1892 0.159-0.84424-0.34929-1.6443-1.189-1.839-1.2385-0.28728-2.8989 4e-3 -4.1814 4e-3h-12.646c-2.0318 0-4.2082-0.2213-6.2211 0l-0.40794-1.9377h22.335c0.84138 0 1.697 0.10022 2.4476-0.35481 1.2884-0.78121 1.3624-2.7851 1.6319-4.1325 0.71543-3.5775 1.5373-7.1334 2.264-10.708 0.2872-1.4132 1.123-3.4669-0.4322-4.4382-0.8272-0.51656-1.9219-0.35512-2.8516-0.35512h-21.723c-2.4098 0-5.1682 0.37877-7.5424-0.0151-0.65118-0.10805-0.63038-1.102-0.73991-1.6167-0.27454-1.2914-0.44475-2.7626-1.9162-3.2106-1.3057-0.39763-2.9305-0.15492-4.2834-0.15492-0.79253 0-1.6801-0.1107-2.4476 0.11973-1.1439 0.34358-1.4998 1.8574-0.5783 2.6554 0.54125 0.46862 1.2387 0.38642 1.9041 0.38642h4.0794m11.728 4.9973 0.50992 5.3032h-6.935l-1.0199-5.3032h7.4449m11.32 0-0.30595 5.3032h-7.3429l-0.50994-5.3032h8.1588m10.606 0-0.77509 3.7734-0.42099 1.4249-1.7615 0.1048h-4.7933l0.30595-5.3032h7.4449m-21.009 8.4648 0.40793 5.3032h-4.2834l-1.5565-0.1048-0.40162-1.4249-0.79549-3.7734h6.629m9.8926 0-0.30596 5.3032h-4.3854l-1.5269-0.16349-0.22376-1.4683-0.39101-3.6715h6.833m9.3826 0-1.1218 5.3032h-5.4052l0.30596-5.3032h6.2211m-21.417 15.244c-4.0673 0.4056-3.6445 6.673 0.40793 6.2444 3.9673-0.41968 3.5659-6.6407-0.40793-6.2444m16.522 0c-4.0107 0.39999-3.5785 6.6366 0.40793 6.2446 4.0363-0.39683 3.6393-6.6483-0.40793-6.2446z" fill="#0c6588" stroke="#0c6588" stroke-width=".10198"/>
 </g>
</svg>
