<?xml version="1.0" encoding="UTF-8"?>
<svg width="91.599mm" height="108.37mm" version="1.1" viewBox="0 0 91.599 108.37" xmlns="http://www.w3.org/2000/svg" xmlns:cc="http://creativecommons.org/ns#" xmlns:dc="http://purl.org/dc/elements/1.1/" xmlns:rdf="http://www.w3.org/1999/02/22-rdf-syntax-ns#">
 <metadata>
  <rdf:RDF>
   <cc:Work rdf:about="">
    <dc:format>image/svg+xml</dc:format>
    <dc:type rdf:resource="http://purl.org/dc/dcmitype/StillImage"/>
    <dc:title/>
   </cc:Work>
  </rdf:RDF>
 </metadata>
 <g transform="translate(-62.853 -65.404)">
  <path d="m104.16 66.67c-9.2961 1.2206-18.39 1.2374-27.517 3.8565-3.8817 1.1139-8.2479 2.5356-11.088 5.5601-1.896 2.0195-1.6124 4.2962-1.6124 6.8753v73.819c-4e-3 2.5379-0.46091 4.5037 1.41 6.59 3.8219 4.2622 11.481 5.8309 16.846 6.9038 14.756 2.9506 30.088 3.1004 44.979 1.2475 6.1759-0.76835 12.485-1.9545 18.256-4.3513 2.5421-1.0557 5.3491-2.4686 6.9178-4.8337 1.2216-1.842 1.0197-4.2455 1.0197-6.35v-72.76c0-2.1943 0.33867-4.4665-1.0025-6.35-2.5768-3.618-7.8756-5.2656-11.962-6.4268-7.462-2.1203-15.058-2.8595-22.754-3.3865-4.4352-0.30372-9.0437-0.97748-13.494-0.3932m0 0.757c3.4901-0.4118 7.1006 0.02614 10.583 0.17862 8.9995 0.39407 18.372 1.073 26.988 3.9802 3.4451 1.1626 10.142 3.1495 10.791 7.4073 0.53208 3.4912-3.5999 5.8322-6.2934 7.0276-7.57 3.3594-15.964 4.2775-24.077 5.3314-14.372 1.8666-30.761 0.83238-44.715-3.1226-3.5322-1.0012-7.443-2.1733-10.318-4.5609-1.0906-0.9054-2.5408-2.3395-2.5212-3.8817 0.0537-4.2147 5.6205-6.2938 8.871-7.4927 10.012-3.6926 20.3-3.6411 30.692-4.8672m48.419 14.741v19.579c0 2.7744 0.57309 6.2092-1.3795 8.4627-3.7872 4.3709-10.993 5.6594-16.348 6.8524-16.073 3.5811-33.568 3.2798-49.742 0.58102-5.9785-0.99748-15.391-2.4146-19.439-7.4398-1.8005-2.2355-1.1983-5.5004-1.1983-8.1918v-19.579c1.3078 0.6096 2.2299 1.7449 3.4396 2.5294 2.1865 1.4184 4.6842 2.4244 7.1438 3.2705 15.332 5.2755 33.293 5.0969 49.212 3.5052 9.8234-0.98213 20.828-2.6794 28.31-9.5697m-12.964 18.453c-3.9764 1.5274-1.6362 8.0574 2.3799 6.4159 3.9455-1.6126 1.7005-7.9833-2.3799-6.4159m12.964 9.0641v19.315c0 2.6913 0.6022 5.9563-1.1983 8.1918-4.0399 5.0154-13.47 6.4439-19.439 7.4398-15.77 2.6316-31.876 2.4707-47.625-0.17621-5.9132-0.99404-14.299-2.5524-18.464-7.2636-1.7724-2.005-1.3785-5.3943-1.3795-7.9272v-19.05c1.3078 0.6096 2.2299 1.7449 3.4396 2.5294 2.2648 1.4692 4.8371 2.4847 7.4083 3.2848 16.483 5.1274 35.172 5.1999 52.123 2.9916 9.1906-1.1972 18.022-3.1877 25.135-9.335m-12.965 19.223c-4.1362 1.0739-2.9578 7.7557 1.3229 6.8257 4.2418-0.92154 2.766-7.8878-1.3229-6.8257m-74.877 8.029c6.6479 6.1219 16.133 7.9348 24.871 9.0704 11.968 1.5552 23.998 1.5171 35.983 0.23389 7.1493-0.76544 14.937-2.0378 21.431-5.285 2.1278-1.0639 3.6497-2.6765 5.5562-4.0193v17.727c0 2.6776 0.53843 5.7827-1.3726 7.9335-5.3459 6.0169-16.752 7.3448-24.292 8.2471-15.145 1.8124-30.825 1.6105-45.773-1.5727-5.0202-1.0692-12.807-2.5964-15.846-7.2006-1.0163-1.5393-0.82259-3.2644-0.82259-5.026v-9.525c0-3.0215-0.9017-7.8042 0.26459-10.583m75.142 17.343c-4.3103 0.93637-2.8173 7.819 1.5875 6.6194 3.9846-1.0851 2.4651-7.4999-1.5875-6.6194z" fill="#141414" stroke="#0c6588" stroke-width="2.065"/>
 </g>
</svg>
