<?xml version="1.0" encoding="UTF-8"?>
<svg width="48.819mm" height="43.808mm" version="1.1" viewBox="0 0 48.819 43.808" xmlns="http://www.w3.org/2000/svg" xmlns:cc="http://creativecommons.org/ns#" xmlns:dc="http://purl.org/dc/elements/1.1/" xmlns:rdf="http://www.w3.org/1999/02/22-rdf-syntax-ns#">
 <metadata>
  <rdf:RDF>
   <cc:Work rdf:about="">
    <dc:format>image/svg+xml</dc:format>
    <dc:type rdf:resource="http://purl.org/dc/dcmitype/StillImage"/>
    <dc:title/>
   </cc:Work>
  </rdf:RDF>
 </metadata>
 <g transform="translate(-99.2 -140.82)">
  <path d="m99.2 140.82v43.808h48.819v-43.808zm22.766 8.8113c3.6416-0.0841 7.3318 1.7552 9.2568 4.9878 3.9183 6.5793 0.96155 13.124-2.2639 19.172 3.0173 0.80163 6.4888 1.5537 9.0635 3.2897 1.3267 0.89444 2.0214 2.6837 0.27544 3.607-1.7663 0.9336-5.2321 0.32763-7.2208 0.32763h-17.851c-1.9228 0-6.0379 0.71947-7.338-0.8971-1.0041-1.2487 0.13645-2.5274 1.2919-3.2184 2.6154-1.5641 5.806-2.3217 8.769-3.1088-1.5351-2.8786-3.5766-5.6039-3.9315-8.8914-0.44968-4.1649 0.0666-8.9007 3.1228-12.225 1.865-2.0284 4.3338-2.9867 6.8254-3.0443zm0.39533 1.8779c-0.61578-1e-3 -1.2434 0.0704-1.8738 0.22375-7.8684 1.9144-7.5468 12.951-4.4834 18.168 1.4812 2.5227 3.878 5.7536 7.5091 4.9434 7.2945-1.6274 8.5598-13.014 6.3676-18.281-1.2131-2.9134-4.1942-5.0485-7.5194-5.055zm3.5724 23.778c-1.1497 0.0389-2.1653 0.65511-3.328 0.6904-2.967 0.0898-4.7689-0.6366-7.8667 0.15503-2.1072 0.53876-5.3969 1.1731-6.6559 2.9383h29.045c-2.2461-2.0848-7.9802-3.8918-11.194-3.7838z" fill="#3e9fcf"/>
 </g>
</svg>
