<?xml version="1.0" encoding="UTF-8" standalone="no"?>
<!-- Created with Inkscape (http://www.inkscape.org/) -->

<svg
   width="168.26mm"
   height="51.465mm"
   version="1.1"
   viewBox="0 0 168.26 51.465"
   id="svg6147"
   sodipodi:docname="virement.svg"
   inkscape:version="1.2.1 (9c6d41e410, 2022-07-14)"
   xmlns:inkscape="http://www.inkscape.org/namespaces/inkscape"
   xmlns:sodipodi="http://sodipodi.sourceforge.net/DTD/sodipodi-0.dtd"
   xmlns="http://www.w3.org/2000/svg"
   xmlns:svg="http://www.w3.org/2000/svg">
  <defs
     id="defs6151">
    <rect
       x="4.3512354"
       y="-1559.0016"
       width="3172.2968"
       height="1222.2443"
       id="rect6155" />
    <rect
       x="4.3512354"
       y="-1559.0016"
       width="3172.2968"
       height="1222.2443"
       id="rect6163" />
  </defs>
  <sodipodi:namedview
     id="namedview6149"
     pagecolor="#ffffff"
     bordercolor="#666666"
     borderopacity="1.0"
     inkscape:showpageshadow="2"
     inkscape:pageopacity="0.0"
     inkscape:pagecheckerboard="0"
     inkscape:deskcolor="#d1d1d1"
     inkscape:document-units="mm"
     showgrid="false"
     inkscape:zoom="0.50731767"
     inkscape:cx="562.76376"
     inkscape:cy="126.1537"
     inkscape:window-width="1280"
     inkscape:window-height="975"
     inkscape:window-x="0"
     inkscape:window-y="26"
     inkscape:window-maximized="1"
     inkscape:current-layer="svg6147" />
  <g
     transform="translate(-14.2 -207.02)"
     id="g6145">
    <g
       transform="matrix(.96173 0 0 .96173 46.616 31.006)"
       id="g6139">
      <text
         transform="matrix(0.26458,0,0,0.26458,1.225,90.352)"
         fill="#0c6588"
         font-family="'Liberation Sans'"
         font-size="85.333px"
         letter-spacing="0px"
         stroke="#000000"
         stroke-width="1px"
         word-spacing="0px"
         style="line-height:125%;white-space:pre;shape-inside:url(#rect5214);display:inline"
         xml:space="preserve"
         id="text6137" />
    </g>
    <path
       d="m34.915 207.02-20.715 11.852 20.621 12.014 0.02015-5.101h29.138c1.6169 0 2.9182-1.3013 2.9182-2.9182v-7.2027c0-1.6169-1.3013-2.9182-2.9182-2.9182h-29.087z"
       fill="#0c6588"
       stroke-width="0"
       id="path6141" />
    <path
       d="m46.183 234.62 20.715 11.852-20.621 12.014-0.0202-5.101h-29.138c-1.6169 0-2.9182-1.3013-2.9182-2.9182v-7.2027c0-1.6169 1.3013-2.9182 2.9182-2.9182h29.087z"
       fill="#0c6588"
       stroke-width="0"
       id="path6143" />
  </g>
  <text
     xml:space="preserve"
     transform="scale(0.26458333)"
     id="text6153"
     style="font-size:85.3333px;line-height:125%;font-family:'Liberation Sans';-inkscape-font-specification:'Liberation Sans';letter-spacing:0px;word-spacing:0px;white-space:pre;shape-inside:url(#rect6155);display:inline;fill:none;stroke:#000000;stroke-width:1px;stroke-linecap:butt;stroke-linejoin:miter;stroke-opacity:1"><tspan
       x="4.3515625"
       y="-1482.1376"
       id="tspan6404">VIREMENT
</tspan><tspan
       x="4.3515625"
       y="-1375.471"
       id="tspan6406">BANCAIRE</tspan></text>
  <g
     aria-label="VIREMENT
BANCAIRE"
     transform="matrix(0.24614406,0,0,0.24614406,56.123779,384.54748)"
     id="text6161"
     style="font-size:85.3333px;line-height:125%;font-family:'Liberation Sans';-inkscape-font-specification:'Liberation Sans';letter-spacing:0px;word-spacing:0px;white-space:pre;shape-inside:url(#rect6163);display:inline;fill:#1a1a1a;stroke:#000000;stroke-width:1px">
    <path
       d="m 36.934882,-1482.1376 h -8.249996 l -23.9583237,-58.7083 h 8.3749967 l 16.249993,41.3333 3.499999,10.375 3.499998,-10.375 16.16666,-41.3333 h 8.374997 z"
       id="path6263" />
    <path
       d="m 69.1432,-1482.1376 v -58.7083 h 7.95833 v 58.7083 z"
       id="path6265" />
    <path
       d="m 133.4765,-1482.1376 -15.24999,-24.375 H 99.934851 v 24.375 h -7.95833 v -58.7083 h 27.624989 q 9.91666,0 15.29166,4.4583 5.41666,4.4167 5.41666,12.3333 0,6.5417 -3.83333,11 -3.79166,4.4584 -10.49999,5.625 l 16.66666,25.2917 z m -1.16666,-41.8333 q 0,-5.125 -3.5,-7.7917 -3.45833,-2.7083 -10,-2.7083 H 99.934851 v 21.6666 h 19.208329 q 6.29166,0 9.70833,-2.9166 3.45833,-2.9584 3.45833,-8.25 z"
       id="path6267" />
    <path
       d="m 153.6015,-1482.1376 v -58.7083 h 44.54165 v 6.5 h -36.58332 v 18.8333 h 34.08332 v 6.4167 h -34.08332 v 20.4583 h 38.29165 v 6.5 z"
       id="path6269" />
    <path
       d="m 260.43479,-1482.1376 v -39.1667 q 0,-6.5 0.375,-12.5 -2.04167,7.4584 -3.66667,11.6667 l -15.16666,40 h -5.58333 l -15.37499,-40 -2.33334,-7.0833 -1.375,-4.5834 0.125,4.625 0.16667,7.875 v 39.1667 h -7.08333 v -58.7083 h 10.45833 l 15.62499,40.7083 q 0.83334,2.4583 1.58333,5.2917 0.79167,2.7916 1.04167,4.0416 0.33333,-1.6666 1.375,-5.0416 1.08333,-3.4167 1.45833,-4.2917 l 15.33333,-40.7083 h 10.20833 v 58.7083 z"
       id="path6271" />
    <path
       d="m 281.60144,-1482.1376 v -58.7083 h 44.54165 v 6.5 h -36.58332 v 18.8333 h 34.08332 v 6.4167 h -34.08332 v 20.4583 h 38.29165 v 6.5 z"
       id="path6273" />
    <path
       d="m 376.60141,-1482.1376 -31.41665,-50 0.20833,4.0417 0.20833,6.9583 v 39 h -7.08333 v -58.7083 h 9.25 l 31.74999,50.3333 q -0.5,-8.1667 -0.5,-11.8333 v -38.5 h 7.16666 v 58.7083 z"
       id="path6275" />
    <path
       d="m 423.14305,-1534.3459 v 52.2083 h -7.91666 v -52.2083 h -20.16666 v -6.5 h 48.24998 v 6.5 z"
       id="path6277" />
    <path
       d="m 56.768207,-1392.0126 q 0,7.8333 -5.708331,12.2083 -5.708331,4.3333 -15.874993,4.3333 H 11.35156 v -58.7083 h 21.333324 q 20.666658,0 20.666658,14.25 0,5.2083 -2.916665,8.75 -2.916666,3.5417 -8.249997,4.75 6.999997,0.8333 10.791662,4.7083 3.791665,3.8334 3.791665,9.7084 z m -11.416662,-26.9584 q 0,-4.75 -3.249998,-6.7916 -3.249999,-2.0417 -9.416663,-2.0417 H 19.30989 v 18.5833 h 13.374994 q 6.374997,0 9.499996,-2.375 3.166665,-2.4166 3.166665,-7.375 z m 3.374999,26.3334 q 0,-10.375 -14.583327,-10.375 H 19.30989 v 21.1666 h 15.458326 q 7.291664,0 10.624996,-2.7083 3.333332,-2.7083 3.333332,-8.0833 z"
       id="path6279" />
    <path
       d="m 109.89318,-1375.471 -6.70833,-17.1666 H 76.434864 l -6.749997,17.1666 H 61.43487 l 23.958324,-58.7083 h 9.041663 l 23.583323,58.7083 z m -20.083322,-52.7083 -0.374999,1.1667 q -1.041667,3.4583 -3.083332,8.875 l -7.499997,19.2916 h 21.95832 l -7.54166,-19.375 q -1.166666,-2.875 -2.333332,-6.5 z"
       id="path6281" />
    <path
       d="m 163.26816,-1375.471 -31.41665,-50 0.20833,4.0417 0.20833,6.9583 v 39 h -7.08333 v -58.7083 h 9.25 l 31.74998,50.3333 q -0.49999,-8.1666 -0.49999,-11.8333 v -38.5 h 7.16666 v 58.7083 z"
       id="path6283" />
    <path
       d="m 212.8098,-1428.5543 q -9.75,0 -15.16666,6.2917 -5.41666,6.25 -5.41666,17.1666 0,10.7917 5.62499,17.375 5.66667,6.5417 15.29166,6.5417 12.33333,0 18.54166,-12.2083 l 6.5,3.25 q -3.625,7.5833 -10.20833,11.5416 -6.54166,3.9584 -15.20833,3.9584 -8.87499,0 -15.37499,-3.6667 -6.45833,-3.7083 -9.875,-10.5417 -3.37499,-6.875 -3.37499,-16.25 0,-14.0416 7.58333,-22 7.58333,-7.9583 20.99999,-7.9583 9.37499,0 15.66666,3.6667 6.29166,3.6666 9.24999,10.875 l -7.54166,2.5 q -2.04167,-5.125 -6.58333,-7.8334 -4.5,-2.7083 -10.70833,-2.7083 z"
       id="path6285" />
    <path
       d="m 290.05976,-1375.471 -6.70833,-17.1666 h -26.74999 l -6.74999,17.1666 h -8.25 l 23.95832,-58.7083 h 9.04167 l 23.58332,58.7083 z m -20.08332,-52.7083 -0.375,1.1667 q -1.04167,3.4583 -3.08333,8.875 l -7.5,19.2916 h 21.95832 l -7.54166,-19.375 q -1.16667,-2.875 -2.33333,-6.5 z"
       id="path6287" />
    <path
       d="m 306.22644,-1375.471 v -58.7083 h 7.95833 v 58.7083 z"
       id="path6289" />
    <path
       d="m 370.55973,-1375.471 -15.24999,-24.375 h -18.29166 v 24.375 h -7.95833 v -58.7083 h 27.62499 q 9.91666,0 15.29166,4.4583 5.41666,4.4167 5.41666,12.3334 0,6.5416 -3.83333,11 -3.79166,4.4583 -10.49999,5.625 l 16.66666,25.2916 z m -1.16666,-41.8333 q 0,-5.125 -3.5,-7.7917 -3.45833,-2.7083 -10,-2.7083 h -18.87499 v 21.6667 h 19.20833 q 6.29166,0 9.70833,-2.9167 3.45833,-2.9583 3.45833,-8.25 z"
       id="path6291" />
    <path
       d="m 390.68472,-1375.471 v -58.7083 h 44.54165 v 6.5 h -36.58332 v 18.8333 h 34.08332 v 6.4167 h -34.08332 v 20.4583 h 38.29165 v 6.5 z"
       id="path6293" />
  </g>
</svg>
